<svg xmlns="http://www.w3.org/2000/svg" width="30" height="30" viewBox="0 0 30 30">
  <path fill="#1C8200" fill-rule="evenodd" d="M25.4271936,9.78933843 L25.5059596,9.83536858 L28.5459596,11.9993686 C28.7709256,12.1595089 28.8234773,12.4716992 28.663337,12.6966652 C28.5209901,12.896635 28.2585049,12.9603761 28.0439314,12.8596004 L27.9660404,12.8140426 L26.1000539,11.4834228 C26.8017252,13.2224963 27.0299175,15.1211704 26.7529023,16.9774878 C25.9468599,23.2345971 20.35076,27.7188258 14.1170784,27.1824896 L13.8197711,27.153142 C11.8079705,26.9988724 9.88089921,26.271691 8.26745951,25.0581996 C8.0467698,24.8922157 8.00242201,24.5787548 8.16840594,24.3580651 C8.33438987,24.1373754 8.64785078,24.0930276 8.86854049,24.2590115 C10.2321893,25.2846316 11.8432317,25.9266291 13.5468991,26.1225452 L13.913332,26.1576766 C19.7403393,26.8065021 25.011965,22.6650569 25.7624726,16.839831 C26.0244471,15.0837569 25.790443,13.293117 25.0935972,11.6674901 L24.0817891,13.8019171 C23.9766285,14.0237093 23.729346,14.1323961 23.5004494,14.0707206 L23.4157885,14.0394947 C23.1939963,13.934334 23.0853095,13.6870516 23.146985,13.4581549 L23.1782109,13.373494 L24.7642109,10.028494 C24.8841827,9.775464 25.183701,9.67530052 25.4271936,9.78933843 Z M16.318152,3.56871066 C18.4938589,3.87253964 20.5538243,4.73401366 22.2998129,6.06979388 C22.5191317,6.23758513 22.5609029,6.55139978 22.3931117,6.77071851 C22.2253204,6.99003724 21.9115058,7.03180852 21.6921871,6.86401726 C20.0830641,5.63294701 18.1847569,4.83907819 16.1965649,4.56114853 C10.3200535,3.94146108 5.0138266,8.10244227 4.21497548,13.9532169 C3.95852631,15.9622166 4.29992793,17.9989059 5.19137033,19.8081663 L6.08455246,17.6065453 C6.18819436,17.3505903 6.47970526,17.2271161 6.73566027,17.330758 C6.96317583,17.4228842 7.08601518,17.66345 7.03771295,17.8955371 L7.01144754,17.9818658 L5.62944754,21.3948658 C5.52688819,21.6481474 5.24412671,21.7672215 4.99689145,21.6778745 L4.91609141,21.640271 L1.75009141,19.813271 C1.51091596,19.6752503 1.42891383,19.3694724 1.56693454,19.130297 C1.68961961,18.9176966 1.94485357,18.8292825 2.16803817,18.909196 L2.24990859,18.9471401 L4.21297237,20.0814703 C3.29562023,18.1388522 2.94968301,15.9679416 3.22359625,13.8222659 C4.0961189,7.43176804 9.88754583,2.89030781 16.318152,3.56871066 Z M14.8625,9.61940557 C15.1079599,9.61940557 15.3121084,9.79628073 15.3544443,10.0295299 L15.3625,10.1194056 L15.3619164,10.9396285 L15.5304989,10.9630887 C17.1833729,11.2140366 18.3371,12.1636954 18.3371,13.6653056 C18.3371,13.9414479 18.1132424,14.1653056 17.8371,14.1653056 C17.5609576,14.1653056 17.3371,13.9414479 17.3371,13.6653056 C17.3371,12.7067083 16.5275505,12.080875 15.2154,11.929773 C13.9873728,11.7883582 12.7284698,12.1483631 12.3592089,12.70153 C11.595059,13.8485055 12.3795873,14.9105557 14.1446929,14.9373632 L14.6911909,14.9516327 C17.2390505,15.049077 18.438593,15.5746556 18.6431462,17.1915508 C18.8606413,18.910746 17.4287144,19.94163 15.4036618,20.2303016 L15.3619164,20.2346285 L15.3625,21.1193056 C15.3625,21.3954479 15.1386424,21.6193056 14.8625,21.6193056 C14.6170401,21.6193056 14.4128916,21.4424304 14.3705557,21.2091812 L14.3625,21.1193056 L14.3624544,20.2654733 C12.647501,20.1416036 11.0661,19.1318864 11.0661,17.4973056 C11.0661,17.2211632 11.2899576,16.9973056 11.5661,16.9973056 C11.8422424,16.9973056 12.0661,17.2211632 12.0661,17.4973056 C12.0661,18.5714881 13.4178993,19.3049537 14.8113052,19.2766582 C14.8279338,19.272193 14.8451133,19.2713056 14.8625,19.2713056 L14.8925997,19.2741415 C15.0160893,19.2689993 15.1397054,19.2578194 15.2625382,19.2403096 C16.8177448,19.0186147 17.7787874,18.3267334 17.6510538,17.3170603 C17.5465086,16.4906802 16.8881741,16.1159717 15.3005354,15.9879066 L14.8650413,15.9599585 C14.7888632,15.956188 14.7108667,15.9528501 14.6310208,15.9499279 L14.1295071,15.9372479 C11.6485732,15.8995688 10.2701641,14.0335563 11.5272424,12.1467043 C12.0175288,11.4122361 13.1396939,10.9683652 14.3620157,10.9058123 L14.3625,10.1194056 C14.3625,9.84326319 14.5863576,9.61940557 14.8625,9.61940557 Z"/>
</svg>
