<svg xmlns="http://www.w3.org/2000/svg" width="30" height="30" viewBox="0 0 30 30">
  <path fill="#1C8200" fill-rule="evenodd" d="M21.501,3.971 C21.7771424,3.971 22.001,4.19485763 22.001,4.471 L22.001,4.471 L22.001,7.171 L26.378,7.171 C26.6541424,7.171 26.878,7.39485763 26.878,7.671 L26.878,7.671 L26.878,25.025 C26.878,25.3011424 26.6541424,25.525 26.378,25.525 L26.378,25.525 L3.621,25.525 C3.34485763,25.525 3.121,25.3011424 3.121,25.025 L3.121,25.025 L3.121,7.671 C3.121,7.39485763 3.34485763,7.171 3.621,7.171 L3.621,7.171 L7.85,7.171 L7.85,4.471 C7.85,4.19485763 8.07385763,3.971 8.35,3.971 C8.62614237,3.971 8.85,4.19485763 8.85,4.471 L8.85,4.471 L8.85,7.171 L14.372,7.171 L14.372,4.471 C14.372,4.19485763 14.5958576,3.971 14.872,3.971 C15.1481424,3.971 15.372,4.19485763 15.372,4.471 L15.372,4.471 L15.372,7.171 L21.001,7.171 L21.001,4.471 C21.001,4.19485763 21.2248576,3.971 21.501,3.971 Z M25.878,13.805 L4.121,13.805 L4.121,24.525 L25.878,24.525 L25.878,13.805 Z M22.317,18.271 C22.5931424,18.271 22.817,18.4948576 22.817,18.771 L22.817,20.881 C22.817,21.1571424 22.5931424,21.381 22.317,21.381 L20.207,21.381 C19.9308576,21.381 19.707,21.1571424 19.707,20.881 L19.707,18.771 C19.707,18.4948576 19.9308576,18.271 20.207,18.271 L22.317,18.271 Z M7.85,8.171 L4.121,8.171 L4.121,12.808 L25.878,12.808 L25.878,8.171 L22.001,8.171 L22.001,9.908 C22.001,10.1841424 21.7771424,10.408 21.501,10.408 C21.2248576,10.408 21.001,10.1841424 21.001,9.908 L21.001,9.908 L21.001,8.171 L15.372,8.171 L15.372,9.908 C15.372,10.1841424 15.1481424,10.408 14.872,10.408 C14.5958576,10.408 14.372,10.1841424 14.372,9.908 L14.372,9.908 L14.372,8.171 L8.85,8.171 L8.85,9.908 C8.85,10.1841424 8.62614237,10.408 8.35,10.408 C8.07385763,10.408 7.85,10.1841424 7.85,9.908 L7.85,9.908 L7.85,8.171 Z"/>
</svg>
