<svg xmlns="http://www.w3.org/2000/svg" width="30" height="30" viewBox="0 0 30 30">
  <path fill="#1C8200" fill-rule="evenodd" d="M24.833,6.443 C25.1091424,6.443 25.333,6.66685763 25.333,6.943 L25.333,15.652 L28.115,20.107 C28.180008,20.2109403 28.2045636,20.3351416 28.184,20.456 L27.727,23.142 C27.6860467,23.3823049 27.4777696,23.5580005 27.234,23.5580005 L3.377,23.5580005 C3.15798963,23.558314 2.96426493,23.4160601 2.899,23.207 L2.06,20.521 C2.0171053,20.3838172 2.03532139,20.2348095 2.11,20.112 L4.819,15.655 L4.819,6.943 C4.819,6.66685763 5.04285763,6.443 5.319,6.443 L24.833,6.443 Z M27.0602135,21.096 L3.28721354,21.096 L3.744,22.558 L26.812,22.558 L27.0602135,21.096 Z M24.6962135,16.519 L5.46321354,16.519 L3.28921354,20.096 L26.9302135,20.096 L24.6962135,16.519 Z M22.576,17.865 C22.8521424,17.865 23.076,18.0888576 23.076,18.365 C23.076,18.6411424 22.8521424,18.865 22.576,18.865 L7.229,18.865 C6.95285763,18.865 6.729,18.6411424 6.729,18.365 C6.729,18.0888576 6.95285763,17.865 7.229,17.865 L22.576,17.865 Z M24.333,7.443 L5.819,7.443 L5.81821354,15.519 L24.3322135,15.519 L24.333,7.443 Z M16.473,9.521 L19.82,12.329 C19.9809489,12.464071 20.0402799,12.6853569 19.9684922,12.882829 C19.8967045,13.0803011 19.7091159,13.2118235 19.499,13.212 C19.3815813,13.2119013 19.2679427,13.1704816 19.178,13.095 L15.831,10.287 C15.6300689,10.1070291 15.608116,9.80011837 15.7813865,9.59338136 C15.9546569,9.38664435 16.2606804,9.35461722 16.473,9.521 Z M19.8084137,9.1064602 L23.1554137,11.9144602 C23.3163626,12.0495312 23.3756936,12.2708171 23.3039059,12.4682892 C23.2321182,12.6657613 23.0445296,12.7972837 22.8344137,12.7974602 C22.716995,12.7973615 22.6033565,12.7559418 22.5134137,12.6804602 L19.1664137,9.8724602 C18.9654826,9.69248927 18.9435298,9.38557857 19.1168002,9.17884156 C19.2900707,8.97210455 19.5960941,8.94007742 19.8084137,9.1064602 Z"/>
</svg>
