<svg xmlns="http://www.w3.org/2000/svg" width="30" height="30" viewBox="0 0 30 30">
  <path fill="#1C8200" fill-rule="evenodd" d="M20.553,0.993 C22.0576811,0.99410223 23.2773457,2.21331943 23.279,3.718 L23.279,3.718 L23.279,26.281 C23.2773466,27.7858428 22.0578428,29.0053466 20.553,29.007 L20.553,29.007 L9.453,29.007 C7.94815715,29.0053466 6.72865337,27.7858428 6.727,26.281 L6.727,26.281 L6.727,3.718 C6.7286543,2.21331943 7.94831893,0.99410223 9.453,0.993 L9.453,0.993 Z M20.553,1.993 L9.453,1.993 C8.50037519,1.99355097 7.72810305,2.76537567 7.727,3.718 L7.727,3.718 L7.727,26.281 C7.72810213,27.2337866 8.50021341,28.0058979 9.453,28.007 L9.453,28.007 L20.553,28.007 C21.5057866,28.0058979 22.2778979,27.2337866 22.279,26.281 L22.279,26.281 L22.279,23.954 L7.761,23.954 L7.761,22.954 L22.279,22.954 L22.279,3.718 C22.2778969,2.76537567 21.5056248,1.99355097 20.553,1.993 L20.553,1.993 Z M14.658,24.778 L14.7889624,24.7854123 C15.0485836,24.8149045 15.2921082,24.9314594 15.4785976,25.1181096 C15.6961686,25.3358681 15.8182654,25.6311756 15.8180004,25.939 C15.8168959,26.5788365 15.297506,27.096735 14.657669,27.096 C14.0178319,27.0952635 13.4996345,26.5761718 13.5000017,25.9363345 C13.5003693,25.2964971 14.0191625,24.778 14.659,24.778 L14.658,24.778 Z M14.792,8.561 C15.0681424,8.561 15.292,8.78485763 15.292,9.061 L15.292,9.061 L15.292,9.855 C15.5663189,9.88461201 15.8376272,9.93746863 16.103,10.013 C17.2933632,10.2529228 18.1570357,11.2879159 18.18,12.502 C18.18,12.7781424 17.9561424,13.002 17.68,13.002 C17.4038576,13.002 17.18,12.7781424 17.18,12.502 C17.1370783,11.735501 16.5705844,11.1001653 15.814,10.97 C14.451,10.56 12.786,10.96 12.376,11.579 C12.081802,11.9442745 12.0140482,12.4424192 12.2,12.873 C12.640904,13.4696377 13.36116,13.7929947 14.1,13.726 C15.636,13.749 18.207,13.787 18.479,15.926 C18.672,17.45 17.462,18.586 15.323,18.892 L15.323,18.892 L15.295,18.892 L15.295,19.736 C15.295,20.0121424 15.0711424,20.236 14.795,20.236 C14.5188576,20.236 14.295,20.0121424 14.295,19.736 L14.295,19.736 L14.295,18.898 C13.4317905,18.8477263 12.6048444,18.5335636 11.926,17.998 C11.3983645,17.5590323 11.0943468,16.9073561 11.097,16.221 C11.097,15.9448576 11.3208576,15.721 11.597,15.721 C11.8731424,15.721 12.097,15.9448576 12.097,16.221 C12.0930672,16.6178642 12.2714745,16.9945838 12.581,17.243 C13.3317171,17.786383 14.2625315,18.0205187 15.181,17.897 C15.766,17.814 17.661,17.429 17.482,16.051 C17.365,15.107 16.474,14.76 14.082,14.726 C12.9762481,14.8017034 11.9167361,14.2704153 11.316,13.339 C10.9522678,12.5859029 11.0402829,11.6926268 11.544,11.025 C12.2346779,10.2338033 13.2421039,9.79167966 14.292,9.819 L14.292,9.819 L14.292,9.061 C14.292,8.78485763 14.5158576,8.561 14.792,8.561 Z M16.03,4.748 C16.3061424,4.748 16.53,4.97185763 16.53,5.248 C16.53,5.52414237 16.3061424,5.748 16.03,5.748 L16.03,5.748 L13.78,5.748 C13.5038576,5.748 13.28,5.52414237 13.28,5.248 C13.28,4.97185763 13.5038576,4.748 13.78,4.748 L13.78,4.748 Z"/>
</svg>
